<?xml version="1.0" encoding="utf-8"?>
<!-- Generator: Adobe Illustrator 26.5.0, SVG Export Plug-In . SVG Version: 6.00 Build 0)  -->
<svg version="1.1" id="katman_1" xmlns="http://www.w3.org/2000/svg" xmlns:xlink="http://www.w3.org/1999/xlink" x="0px" y="0px"
	 viewBox="0 0 437 78" style="enable-background:new 0 0 437 78;" xml:space="preserve">
<style type="text/css">
	.st0{fill:#FFFFFF;}
	.st1{fill:#E17726;stroke:#E17726;stroke-linecap:round;stroke-linejoin:round;}
	.st2{fill:#E27625;stroke:#E27625;stroke-linecap:round;stroke-linejoin:round;}
	.st3{fill:#D5BFB2;stroke:#D5BFB2;stroke-linecap:round;stroke-linejoin:round;}
	.st4{fill:#233447;stroke:#233447;stroke-linecap:round;stroke-linejoin:round;}
	.st5{fill:#CC6228;stroke:#CC6228;stroke-linecap:round;stroke-linejoin:round;}
	.st6{fill:#E27525;stroke:#E27525;stroke-linecap:round;stroke-linejoin:round;}
	.st7{fill:#F5841F;stroke:#F5841F;stroke-linecap:round;stroke-linejoin:round;}
	.st8{fill:#C0AC9D;stroke:#C0AC9D;stroke-linecap:round;stroke-linejoin:round;}
	.st9{fill:#161616;stroke:#161616;stroke-linecap:round;stroke-linejoin:round;}
	.st10{fill:#763E1A;stroke:#763E1A;stroke-linecap:round;stroke-linejoin:round;}
</style>
<g>
	<g>
		<path class="st0" d="M381.6,39.2c-2.2-1.5-4.6-2.5-7-3.8c-1.5-0.8-3.1-1.6-4.4-2.7c-2.2-1.8-1.8-5.4,0.6-7c3.3-2.2,8.8-1,9.4,3.5
			c0,0.1,0.1,0.2,0.2,0.2h5c0.1,0,0.2-0.1,0.2-0.2c-0.3-3.1-1.5-5.7-3.7-7.4c-2.1-1.6-4.5-2.4-7.1-2.4c-13.2,0-14.4,14-7.3,18.4
			c0.8,0.5,7.8,4,10.3,5.6c2.5,1.5,3.2,4.3,2.2,6.5c-1,2-3.5,3.4-6,3.2c-2.8-0.2-4.9-1.7-5.7-4c-0.1-0.4-0.2-1.2-0.2-1.6
			c0-0.1-0.1-0.2-0.2-0.2h-5.4c-0.1,0-0.2,0.1-0.2,0.2c0,3.9,1,6.1,3.6,8.1c2.5,1.9,5.2,2.7,8.1,2.7c7.4,0,11.2-4.2,12-8.5
			C386.6,45.6,385.4,41.8,381.6,39.2z"/>
		<path class="st0" d="M145.9,20.2h-2.4h-2.6c-0.1,0-0.2,0.1-0.2,0.1L136.2,35c-0.1,0.2-0.3,0.2-0.4,0l-4.5-14.7
			c0-0.1-0.1-0.1-0.2-0.1h-2.6h-2.4h-3.2c-0.1,0-0.2,0.1-0.2,0.2v37.5c0,0.1,0.1,0.2,0.2,0.2h5.4c0.1,0,0.2-0.1,0.2-0.2V29.4
			c0-0.2,0.3-0.3,0.4-0.1l4.5,14.8l0.3,1c0,0.1,0.1,0.1,0.2,0.1h4.2c0.1,0,0.2-0.1,0.2-0.1l0.3-1l4.5-14.8c0.1-0.2,0.4-0.2,0.4,0.1
			v28.5c0,0.1,0.1,0.2,0.2,0.2h5.4c0.1,0,0.2-0.1,0.2-0.2V20.4c0-0.1-0.1-0.2-0.2-0.2H145.9L145.9,20.2z"/>
		<path class="st0" d="M298.5,20.2c-0.1,0-0.2,0.1-0.2,0.1L293.8,35c-0.1,0.2-0.3,0.2-0.4,0l-4.5-14.7c0-0.1-0.1-0.1-0.2-0.1h-8.3
			c-0.1,0-0.2,0.1-0.2,0.2v37.5c0,0.1,0.1,0.2,0.2,0.2h5.4c0.1,0,0.2-0.1,0.2-0.2V29.4c0-0.2,0.3-0.3,0.4-0.1l4.5,14.8l0.3,1
			c0,0.1,0.1,0.1,0.2,0.1h4.2c0.1,0,0.2-0.1,0.2-0.1l0.3-1l4.5-14.8c0.1-0.2,0.4-0.2,0.4,0.1v28.5c0,0.1,0.1,0.2,0.2,0.2h5.4
			c0.1,0,0.2-0.1,0.2-0.2V20.4c0-0.1-0.1-0.2-0.2-0.2H298.5L298.5,20.2z"/>
		<path class="st0" d="M228.5,20.2h-10.1H213h-10.2c-0.1,0-0.2,0.1-0.2,0.2v4.7c0,0.1,0.1,0.2,0.2,0.2h9.9v32.6
			c0,0.1,0.1,0.2,0.2,0.2h5.4c0.1,0,0.2-0.1,0.2-0.2V25.3h9.9c0.1,0,0.2-0.1,0.2-0.2v-4.7C228.7,20.3,228.6,20.2,228.5,20.2z"/>
		<path class="st0" d="M260.5,58.1h4.9c0.1,0,0.2-0.1,0.2-0.3l-10.2-37.6c0-0.1-0.1-0.1-0.2-0.1h-1.9H250h-1.9
			c-0.1,0-0.2,0.1-0.2,0.1l-10.2,37.6c0,0.1,0.1,0.3,0.2,0.3h4.9c0.1,0,0.2-0.1,0.2-0.1l3-11c0-0.1,0.1-0.1,0.2-0.1h10.9
			c0.1,0,0.2,0.1,0.2,0.1l3,11C260.3,58,260.4,58.1,260.5,58.1z M247.5,41.5l4-14.7c0.1-0.2,0.3-0.2,0.4,0l4,14.7
			c0,0.1-0.1,0.3-0.2,0.3h-7.9C247.6,41.8,247.5,41.6,247.5,41.5z"/>
		<path class="st0" d="M344.7,58.1h4.9c0.1,0,0.2-0.1,0.2-0.3l-10.2-37.6c0-0.1-0.1-0.1-0.2-0.1h-1.9h-3.3h-1.9
			c-0.1,0-0.2,0.1-0.2,0.1l-10.2,37.6c0,0.1,0.1,0.3,0.2,0.3h4.9c0.1,0,0.2-0.1,0.2-0.1l3-11c0-0.1,0.1-0.1,0.2-0.1h10.9
			c0.1,0,0.2,0.1,0.2,0.1l3,11C344.5,58,344.6,58.1,344.7,58.1z M331.7,41.5l4-14.7c0.1-0.2,0.3-0.2,0.4,0l4,14.7
			c0,0.1-0.1,0.3-0.2,0.3H332C331.8,41.8,331.7,41.6,331.7,41.5z"/>
		<path class="st0" d="M171.3,52.5V40.9c0-0.1,0.1-0.2,0.2-0.2H186c0.1,0,0.2-0.1,0.2-0.2v-4.7c0-0.1-0.1-0.2-0.2-0.2h-14.5
			c-0.1,0-0.2-0.1-0.2-0.2v-9.9c0-0.1,0.1-0.2,0.2-0.2h16.4c0.1,0,0.2-0.1,0.2-0.2v-4.7c0-0.1-0.1-0.2-0.2-0.2h-16.6h-5.6
			c-0.1,0-0.2,0.1-0.2,0.2v4.9v10.4v5.1v12v5.1c0,0.1,0.1,0.2,0.2,0.2h5.6h17.3c0.1,0,0.2-0.1,0.2-0.2V53c0-0.1-0.1-0.2-0.2-0.2
			h-17.2C171.4,52.7,171.3,52.6,171.3,52.5z"/>
		<path class="st0" d="M431.2,57.7l-18.8-19.4c-0.1-0.1-0.1-0.2,0-0.3l16.9-17.6c0.1-0.1,0-0.3-0.1-0.3h-6.9c-0.1,0-0.1,0-0.1,0.1
			l-14.4,15c-0.1,0.1-0.3,0-0.3-0.1V20.5c0-0.1-0.1-0.2-0.2-0.2h-5.5c-0.1,0-0.2,0.1-0.2,0.2V58c0,0.1,0.1,0.2,0.2,0.2h5.4
			c0.1,0,0.2-0.1,0.2-0.2V41.5c0-0.2,0.2-0.3,0.3-0.1l16.2,16.8l0.1,0.1h6.9C431.2,58.1,431.3,57.8,431.2,57.7z"/>
	</g>
	<g>
		<polygon class="st1" points="85.6,0 52.8,24.4 58.9,10 		"/>
		<g>
			<polygon class="st2" points="9.8,0 42.4,24.6 36.6,10 			"/>
			<polygon class="st2" points="73.8,56.5 65,69.9 83.8,75.1 89.1,56.8 			"/>
			<polygon class="st2" points="6.4,56.8 11.7,75.1 30.4,69.9 21.7,56.5 			"/>
			<polygon class="st2" points="29.4,33.9 24.2,41.8 42.7,42.6 42.1,22.6 			"/>
			<polygon class="st2" points="66.1,33.9 53.2,22.4 52.8,42.6 71.3,41.8 			"/>
			<polygon class="st2" points="30.4,69.9 41.6,64.5 31.9,56.9 			"/>
			<polygon class="st2" points="53.9,64.5 65,69.9 63.5,56.9 			"/>
		</g>
		<g>
			<polygon class="st3" points="65,69.9 53.9,64.5 54.8,71.7 54.7,74.8 			"/>
			<polygon class="st3" points="30.4,69.9 40.8,74.8 40.7,71.7 41.6,64.5 			"/>
		</g>
		<polygon class="st4" points="41,52.1 31.7,49.4 38.2,46.4 		"/>
		<polygon class="st4" points="54.5,52.1 57.2,46.4 63.8,49.4 		"/>
		<g>
			<polygon class="st5" points="30.4,69.9 32,56.5 21.7,56.8 			"/>
			<polygon class="st5" points="63.5,56.5 65,69.9 73.8,56.8 			"/>
			<polygon class="st5" points="71.3,41.8 52.8,42.6 54.5,52.1 57.2,46.4 63.8,49.4 			"/>
			<polygon class="st5" points="31.7,49.4 38.2,46.4 41,52.1 42.7,42.6 24.2,41.8 			"/>
		</g>
		<g>
			<polygon class="st6" points="24.2,41.8 31.9,56.9 31.7,49.4 			"/>
			<polygon class="st6" points="63.8,49.4 63.5,56.9 71.3,41.8 			"/>
			<polygon class="st6" points="42.7,42.6 41,52.1 43.1,63.4 43.6,48.5 			"/>
			<polygon class="st6" points="52.8,42.6 51.9,48.5 52.3,63.4 54.5,52.1 			"/>
		</g>
		<polygon class="st7" points="54.5,52.1 52.3,63.4 53.9,64.5 63.5,56.9 63.8,49.4 		"/>
		<polygon class="st7" points="31.7,49.4 31.9,56.9 41.6,64.5 43.1,63.4 41,52.1 		"/>
		<polygon class="st8" points="54.7,74.8 54.8,71.7 53.9,71 41.5,71 40.7,71.7 40.8,74.8 30.4,69.9 34,72.9 41.4,78 54,78 
			61.4,72.9 65,69.9 		"/>
		<polygon class="st9" points="53.9,64.5 52.3,63.4 43.1,63.4 41.6,64.5 40.7,71.7 41.5,71 53.9,71 54.8,71.7 		"/>
		<g>
			<polygon class="st10" points="87,26 89.8,12.5 85.6,0 53.9,23.6 66.1,33.9 83.3,38.9 87.1,34.5 85.5,33.3 88.1,30.9 86.1,29.3 
				88.7,27.3 			"/>
			<polygon class="st10" points="5.7,12.5 8.5,26 6.7,27.3 9.3,29.3 7.3,30.9 10,33.3 8.3,34.5 12.1,38.9 29.4,33.9 41.6,23.6 
				9.8,0 			"/>
		</g>
		<polygon class="st7" points="83.3,38.9 66.1,33.9 71.3,41.8 63.5,56.9 73.8,56.8 89.1,56.8 		"/>
		<polygon class="st7" points="29.4,33.9 12.1,38.9 6.4,56.8 21.7,56.8 31.9,56.9 24.2,41.8 		"/>
		<polygon class="st7" points="52.8,42.6 53.9,23.6 58.9,10 36.6,10 41.6,23.6 42.7,42.6 43.1,48.6 43.1,63.4 52.3,63.4 52.3,48.6 
					"/>
	</g>
</g>
</svg>
