<svg width="1920" height="1080" viewBox="0 0 1920 1080" fill="none" xmlns="http://www.w3.org/2000/svg">
<path d="M559.475 860.443H258.054V716.971L545.121 38.3472H717.362V716.971H792V860.443H717.362V1042.65H559.475V860.443ZM559.475 716.971V325.292H556.604L401.588 716.971H559.475Z" fill="black"/>
<path d="M1017.23 1057C939.725 1057 880.398 1035 839.252 991.003C798.105 947.005 777.532 884.833 777.532 804.489V276.511C777.532 196.167 798.105 133.995 839.252 89.9972C880.398 45.9991 939.725 24 1017.23 24C1094.74 24 1154.07 45.9991 1195.22 89.9972C1236.36 133.995 1256.94 196.167 1256.94 276.511V804.489C1256.94 884.833 1236.36 947.005 1195.22 991.003C1154.07 1035 1094.74 1057 1017.23 1057Z" fill="black"/>
<path d="M1396.11 276.511H1231.05V164.603C1276.02 164.603 1311.91 160.777 1338.7 153.125C1366.45 145.473 1388.46 133.039 1404.72 115.822C1420.99 97.6491 1435.35 71.8241 1447.78 38.3472H1554V1042.65H1396.11V276.511Z" fill="black"/>
</svg>
